<mxfile host="app.diagrams.net" modified="2020-10-23T09:12:45.871Z" agent="5.0 (X11; Linux x86_64) AppleWebKit/537.36 (KHTML, like Gecko) Chrome/86.0.4240.111 Safari/537.36" etag="Q_XemuiW9evfsniErCAa" version="13.8.1" type="github">
  <diagram id="C5RBs43oDa-KdzZeNtuy" name="Page-1">
    <mxGraphModel dx="1038" dy="532" grid="1" gridSize="10" guides="1" tooltips="1" connect="1" arrows="1" fold="1" page="1" pageScale="1" pageWidth="827" pageHeight="1169" math="0" shadow="0">
      <root>
        <mxCell id="WIyWlLk6GJQsqaUBKTNV-0" />
        <mxCell id="WIyWlLk6GJQsqaUBKTNV-1" parent="WIyWlLk6GJQsqaUBKTNV-0" />
        <mxCell id="RUDmouvgoenw0VFGdFm7-2" value="" style="edgeStyle=orthogonalEdgeStyle;rounded=0;orthogonalLoop=1;jettySize=auto;html=1;" edge="1" parent="WIyWlLk6GJQsqaUBKTNV-1" source="WIyWlLk6GJQsqaUBKTNV-3" target="RUDmouvgoenw0VFGdFm7-0">
          <mxGeometry relative="1" as="geometry" />
        </mxCell>
        <mxCell id="WIyWlLk6GJQsqaUBKTNV-3" value="occupancy_grid_node" style="rounded=1;whiteSpace=wrap;html=1;fontSize=12;glass=0;strokeWidth=1;shadow=0;" parent="WIyWlLk6GJQsqaUBKTNV-1" vertex="1">
          <mxGeometry x="90" y="80" width="140" height="40" as="geometry" />
        </mxCell>
        <mxCell id="RUDmouvgoenw0VFGdFm7-4" value="" style="edgeStyle=orthogonalEdgeStyle;rounded=0;orthogonalLoop=1;jettySize=auto;html=1;" edge="1" parent="WIyWlLk6GJQsqaUBKTNV-1" source="RUDmouvgoenw0VFGdFm7-0" target="RUDmouvgoenw0VFGdFm7-3">
          <mxGeometry relative="1" as="geometry" />
        </mxCell>
        <mxCell id="RUDmouvgoenw0VFGdFm7-0" value="HandleSubmapList" style="rounded=0;whiteSpace=wrap;html=1;" vertex="1" parent="WIyWlLk6GJQsqaUBKTNV-1">
          <mxGeometry x="300" y="70" width="120" height="60" as="geometry" />
        </mxCell>
        <mxCell id="RUDmouvgoenw0VFGdFm7-7" value="" style="edgeStyle=orthogonalEdgeStyle;rounded=0;orthogonalLoop=1;jettySize=auto;html=1;" edge="1" parent="WIyWlLk6GJQsqaUBKTNV-1" source="RUDmouvgoenw0VFGdFm7-3" target="RUDmouvgoenw0VFGdFm7-5">
          <mxGeometry relative="1" as="geometry" />
        </mxCell>
        <mxCell id="RUDmouvgoenw0VFGdFm7-3" value="submap-&amp;gt;FetchSubmapTextures" style="rounded=0;whiteSpace=wrap;html=1;" vertex="1" parent="WIyWlLk6GJQsqaUBKTNV-1">
          <mxGeometry x="260" y="170" width="200" height="60" as="geometry" />
        </mxCell>
        <mxCell id="RUDmouvgoenw0VFGdFm7-5" value="调用SubmapQuery service，请求submap的textures" style="whiteSpace=wrap;html=1;" vertex="1" parent="WIyWlLk6GJQsqaUBKTNV-1">
          <mxGeometry x="500" y="150" width="180" height="100" as="geometry" />
        </mxCell>
      </root>
    </mxGraphModel>
  </diagram>
</mxfile>
